<?xml version="1.0" encoding="iso-8859-1"?>
<!DOCTYPE svg PUBLIC "-//W3C//DTD SVG 1.1//EN" "http://www.w3.org/Graphics/SVG/1.1/DTD/svg11.dtd">
<svg 
 version="1.1" xmlns="http://www.w3.org/2000/svg" xmlns:xlink="http://www.w3.org/1999/xlink" x="0px" y="0px" width="512px"
	 height="512px" viewBox="0 0 512 512" style="enable-background:new 0 0 512 512;" xml:space="preserve"
><g id="afcae5a789ccd549f9c6e2a2f80a61dc"><g></g><path style="display: inline; fill:#007aff;" d="M492.322,464.235V511.5H19.678v-47.265H492.322z M49.421,15.939l2.165,1.901
		c19.141,0.72,31.155,1.717,36.034,2.978c4.874,1.265,8.17,2.889,9.887,4.878c1.718,1.985,2.982,5.959,3.794,11.918
		c0.813,5.963,1.307,19.238,1.491,39.828l0.54,52.827v104.037c0,28.358,0.72,49.443,2.169,63.262
		c1.445,13.815,4.606,25.829,9.481,36.03c4.878,10.21,12.909,19.916,24.111,29.125c11.198,9.213,26.508,16.621,45.922,22.22
		c19.418,5.594,41.767,8.396,67.057,8.396c20.226,0,39.731-2.211,58.518-6.637c18.785-4.422,34.184-10.741,46.193-18.966
		c12.01-8.216,22.395-18.422,31.16-30.611c8.756-12.194,14.4-27.768,16.93-46.738c2.53-18.961,3.795-44.878,3.795-77.755V130.27
		l0.813-60.959c0.359-19.686,1.038-31.604,2.03-35.762c0.992-4.15,2.529-7.224,4.606-9.208c2.077-1.989,5.687-3.476,10.838-4.473
		c5.146-0.988,16.21-1.666,33.187-2.026l2.437-2.169V2.669L460.142,0.5c-28.898,1.445-50.214,2.169-63.937,2.169
		c-16.081,0-37.483-0.725-64.208-2.169l-2.17,2.437v12.735l2.17,2.169c20.945,0.36,33.731,1.486,38.333,3.383
		c4.606,1.897,7.764,4.699,9.485,8.396c1.712,3.707,2.797,17.881,3.249,42.538c0.448,24.652,0.679,44.024,0.679,58.111v83.446
		c0,30.343-1.403,54.054-4.2,71.118c-2.802,17.068-8.719,30.842-17.747,41.314c-9.033,10.478-22.174,18.473-39.418,23.983
		c-17.249,5.507-35.809,8.262-55.674,8.262c-18.791,0-35.588-2.077-50.395-6.235c-14.812-4.154-26.189-9.522-34.138-16.118
		c-7.948-6.591-13.86-14.447-17.747-23.572c-3.882-9.116-6.411-20.317-7.583-33.593c-1.178-13.274-1.764-34.091-1.764-62.45V130.27
		l0.545-62.312c0-13.002,0.494-23.166,1.49-30.478c0.988-7.315,3.02-11.963,6.093-13.953c3.069-1.984,7.995-3.341,14.766-4.066
		c6.776-0.72,16.391-1.26,28.853-1.62l2.17-1.901V2.397l-2.17-1.897c-45.695,1.445-71.616,2.169-77.755,2.169
		c-6.864,0-32.693-0.725-77.483-2.169l-2.165,1.897V15.939z"></path></g></svg>